name Walk5.mot
datacolumns 19
datarows 30
range 2.04500000 2.07400000
endheader

                time	   L_ground_force_vx	   L_ground_force_vy	   L_ground_force_vz	   L_ground_force_px	   L_ground_force_py	   L_ground_force_pz	   R_ground_force_vx	   R_ground_force_vy	   R_ground_force_vz	   R_ground_force_px	   R_ground_force_py	   R_ground_force_pz	   L_ground_torque_x	   L_ground_torque_y	   L_ground_torque_z	   R_ground_torque_x	   R_ground_torque_y	   R_ground_torque_z	
          2.04500000	          0.13280250	          0.38952408	         -0.00667475	         -0.00007727	          0.00000000	          0.00000999	        -15.73459421	        637.54702786	        -41.89307279	          0.16587052	          0.00000000	          0.07321856	          0.00000000	          0.00001368	          0.00000000	          0.00000000	          8.25024176	          0.00000000	
          2.04600000	          0.12651803	          0.37989934	         -0.00635392	         -0.00010294	          0.00000000	         -0.00000255	        -15.30850220	        636.91091972	        -41.82326363	          0.16628000	          0.00000000	          0.07324837	          0.00000000	          0.00001397	          0.00000000	          0.00000000	          8.21060936	          0.00000000	
          2.04700000	          0.12028982	          0.36965738	         -0.00603636	         -0.00012604	          0.00000000	         -0.00001402	        -14.88247063	        636.31058101	        -41.76165089	          0.16668816	          0.00000000	          0.07327761	          0.00000000	          0.00001418	          0.00000000	          0.00000000	          8.17072975	          0.00000000	
          2.04800000	          0.11413660	          0.35888939	         -0.00572299	         -0.00014670	          0.00000000	         -0.00002446	        -14.45658332	        635.74510657	        -41.70815141	          0.16709508	          0.00000000	          0.07330629	          0.00000000	          0.00001432	          0.00000000	          0.00000000	          8.13060969	          0.00000000	
          2.04900000	          0.10807527	          0.34768078	         -0.00541464	         -0.00016504	          0.00000000	         -0.00003392	        -14.03094053	        635.21357162	        -41.66266134	          0.16750089	          0.00000000	          0.07333440	          0.00000000	          0.00001440	          0.00000000	          0.00000000	          8.09025651	          0.00000000	
          2.05000000	          0.10212090	          0.33611136	         -0.00511204	         -0.00018120	          0.00000000	         -0.00004245	        -13.60565822	        634.71503398	        -41.62505658	          0.16790569	          0.00000000	          0.07336195	          0.00000000	          0.00001442	          0.00000000	          0.00000000	          8.04967802	          0.00000000	
          2.05100000	          0.09628691	          0.32425554	         -0.00481586	         -0.00019531	          0.00000000	         -0.00005009	        -13.18086720	        634.24853748	        -41.59519349	          0.16830957	          0.00000000	          0.07338894	          0.00000000	          0.00001438	          0.00000000	          0.00000000	          8.00888239	          0.00000000	
          2.05200000	          0.09058510	          0.31218247	         -0.00452666	         -0.00020747	          0.00000000	         -0.00005689	        -12.75671225	        633.81311652	        -41.57290967	          0.16871265	          0.00000000	          0.07341535	          0.00000000	          0.00001428	          0.00000000	          0.00000000	          7.96787821	          0.00000000	
          2.05300000	          0.08502578	          0.29995623	         -0.00424494	         -0.00021782	          0.00000000	         -0.00006290	        -12.33335101	        633.40780151	        -41.55802472	          0.16911502	          0.00000000	          0.07344120	          0.00000000	          0.00001415	          0.00000000	          0.00000000	          7.92667444	          0.00000000	
          2.05400000	          0.07961784	          0.28763605	         -0.00397114	         -0.00022647	          0.00000000	         -0.00006816	        -11.91095273	        633.03162482	        -41.55034111	          0.16951678	          0.00000000	          0.07346648	          0.00000000	          0.00001397	          0.00000000	          0.00000000	          7.88528048	          0.00000000	
          2.05500000	          0.07436886	          0.27527648	         -0.00370561	         -0.00023352	          0.00000000	         -0.00007272	        -11.48969668	        632.68362661	        -41.54964507	          0.16991804	          0.00000000	          0.07349117	          0.00000000	          0.00001375	          0.00000000	          0.00000000	          7.84370603	          0.00000000	
          2.05600000	          0.06928514	          0.26292756	         -0.00344865	         -0.00023909	          0.00000000	         -0.00007661	        -11.06977063	        632.36286040	        -41.55570783	          0.17031889	          0.00000000	          0.07351529	          0.00000000	          0.00001350	          0.00000000	          0.00000000	          7.80196092	          0.00000000	
          2.05700000	          0.06437185	          0.25063506	         -0.00320051	         -0.00024329	          0.00000000	         -0.00007988	        -10.65136900	        632.06839783	        -41.56828691	          0.17071944	          0.00000000	          0.07353881	          0.00000000	          0.00001322	          0.00000000	          0.00000000	          7.76005483	          0.00000000	
          2.05800000	          0.05963306	          0.23844062	         -0.00296138	         -0.00024621	          0.00000000	         -0.00008258	        -10.23469110	        631.79933223	        -41.58712759	          0.17111979	          0.00000000	          0.07356174	          0.00000000	          0.00001291	          0.00000000	          0.00000000	          7.71799708	          0.00000000	
          2.05900000	          0.05507184	          0.22638200	         -0.00273138	         -0.00024795	          0.00000000	         -0.00008473	         -9.81993909	        631.55478105	        -41.61196418	          0.17152005	          0.00000000	          0.07358407	          0.00000000	          0.00001259	          0.00000000	          0.00000000	          7.67579643	          0.00000000	
          2.06000000	          0.05069033	          0.21449320	         -0.00251062	         -0.00024860	          0.00000000	         -0.00008638	         -9.40731621	        631.33388770	        -41.64252113	          0.17192033	          0.00000000	          0.07360577	          0.00000000	          0.00001224	          0.00000000	          0.00000000	          7.63346090	          0.00000000	
          2.06100000	          0.04648981	          0.20280472	         -0.00229915	         -0.00024826	          0.00000000	         -0.00008756	         -8.99702505	        631.13582365	        -41.67851367	          0.17232073	          0.00000000	          0.07362683	          0.00000000	          0.00001187	          0.00000000	          0.00000000	          7.59099756	          0.00000000	
          2.06200000	          0.04247077	          0.19134369	         -0.00209696	         -0.00024701	          0.00000000	         -0.00008831	         -8.58926614	        630.95979150	        -41.71964830	          0.17272137	          0.00000000	          0.07364724	          0.00000000	          0.00001149	          0.00000000	          0.00000000	          7.54841238	          0.00000000	
          2.06300000	          0.03863295	          0.18013408	         -0.00190404	         -0.00024494	          0.00000000	         -0.00008867	         -8.18423673	        630.80502883	        -41.76562329	          0.17312235	          0.00000000	          0.07366699	          0.00000000	          0.00001110	          0.00000000	          0.00000000	          7.50571005	          0.00000000	
          2.06400000	          0.03497545	          0.16919688	         -0.00172033	         -0.00024211	          0.00000000	         -0.00008865	         -7.78212958	        630.67081223	        -41.81612940	          0.17352378	          0.00000000	          0.07368605	          0.00000000	          0.00001070	          0.00000000	          0.00000000	          7.46289410	          0.00000000	
          2.06500000	          0.03149676	          0.15855024	         -0.00154574	         -0.00023861	          0.00000000	         -0.00008831	         -7.38313174	        630.55646088	        -41.87085101	          0.17392577	          0.00000000	          0.07370443	          0.00000000	          0.00001030	          0.00000000	          0.00000000	          7.41996699	          0.00000000	
          2.06600000	          0.02819483	          0.14820971	         -0.00138015	         -0.00023451	          0.00000000	         -0.00008766	         -6.98742354	        630.46133948	        -41.92946759	          0.17432840	          0.00000000	          0.07372211	          0.00000000	          0.00000989	          0.00000000	          0.00000000	          7.37693028	          0.00000000	
          2.06700000	          0.02506710	          0.13818832	         -0.00122343	         -0.00022987	          0.00000000	         -0.00008673	         -6.59517788	        630.38486067	        -41.99165543	          0.17473179	          0.00000000	          0.07373909	          0.00000000	          0.00000948	          0.00000000	          0.00000000	          7.33378467	          0.00000000	
          2.06800000	          0.02211058	          0.12849680	         -0.00107541	         -0.00022475	          0.00000000	         -0.00008556	         -6.20655999	        630.32648751	        -42.05708923	          0.17513603	          0.00000000	          0.07375536	          0.00000000	          0.00000906	          0.00000000	          0.00000000	          7.29053002	          0.00000000	
          2.06900000	          0.01932189	          0.11914374	         -0.00093591	         -0.00021922	          0.00000000	         -0.00008416	         -5.82172749	        630.28573625	        -42.12544364	          0.17554120	          0.00000000	          0.07377091	          0.00000000	          0.00000865	          0.00000000	          0.00000000	          7.24716519	          0.00000000	
          2.07000000	          0.01669728	          0.11013570	         -0.00080473	         -0.00021333	          0.00000000	         -0.00008256	         -5.44083084	        630.26217887	        -42.19639465	          0.17594740	          0.00000000	          0.07378574	          0.00000000	          0.00000824	          0.00000000	          0.00000000	          7.20368796	          0.00000000	
          2.07100000	          0.01423274	          0.10147739	         -0.00068167	         -0.00020714	          0.00000000	         -0.00008079	         -5.06401366	        630.25544485	        -42.26962099	          0.17635470	          0.00000000	          0.07379984	          0.00000000	          0.00000783	          0.00000000	          0.00000000	          7.16009491	          0.00000000	
          2.07200000	          0.01192396	          0.09317178	         -0.00056649	         -0.00020069	          0.00000000	         -0.00007886	         -4.69141305	        630.26522204	        -42.34480554	          0.17676316	          0.00000000	          0.07381321	          0.00000000	          0.00000743	          0.00000000	          0.00000000	          7.11638140	          0.00000000	
          2.07300000	          0.00976643	          0.08522027	         -0.00045897	         -0.00019403	          0.00000000	         -0.00007680	         -4.32315952	        630.29125705	        -42.42163663	          0.17717287	          0.00000000	          0.07382583	          0.00000000	          0.00000704	          0.00000000	          0.00000000	          7.07254147	          0.00000000	
          2.07400000	          0.00775543	          0.07762281	         -0.00035885	         -0.00018721	          0.00000000	         -0.00007462	         -3.95937662	        630.33335548	        -42.49980922	          0.17758386	          0.00000000	          0.07383770	          0.00000000	          0.00000665	          0.00000000	          0.00000000	          7.02856788	          0.00000000	
